/* XPM */
static char * bg_tile_small_darker_xpm[] = {
"160 90 28 1",
" 	c None",
".	c #2B2B2B",
"+	c #292929",
"@	c #2C2C2C",
"#	c #2D2D2D",
"$	c #2E2E2E",
"%	c #2A2A2A",
"&	c #282828",
"*	c #272727",
"=	c #242424",
"-	c #262626",
";	c #232323",
">	c #252525",
",	c #333333",
"'	c #353535",
")	c #323232",
"!	c #313131",
"~	c #343434",
"{	c #303030",
"]	c #2F2F2F",
"^	c #222222",
"/	c #212121",
"(	c #202020",
"_	c #1F1F1F",
":	c #1E1E1E",
"<	c #383838",
"[	c #363636",
"}	c #373737",
".+@.#@@..#@#$@@%+.@..%@%%+.+%+&*&*=-;-*->>>-=>;=>*-=-->-==>>&-+&&+&+-->>>==>*->..,'')!!)~{#]!!]!!!{)!$$##$$,,{{!!{@@#@.%@@+**&+%%+*..@.+#@%@]!$)]@@.@%++%@]%%.%+",
"%.%....%.%%@@..++%%++%%%%&***&*----*^;>;;>>===^^>>->>=>->>=>-**-****&-*>**-*&&&.@@##]{$!]]]){!${!{${]#.%@#${#@##]$@@@@..#%+**&+.@**+..]##]@@#!]){#@.%+&.%++-++%+",
"@@@.@..%@%.%%.++&.%**-&%&--**&->>-;>;^;;>==;;=^==>->->***->-&*----+**-*&&&&++%%#$$$]]]##@.@$.%..]]###.@%%{]!$$#]]$]]]{]{]$]&&.###%&&+.##@@..@@#$@@.@..@@#.%+++*%",
"&%.@#@%%@&%+%%&--+++++&+&*-*----=>=>;==;>>;=-=->>-**-*+*+&-*&&**&&&**-&&++%&%%.@##@@@@@%@.@#.@.@{{$#$$$..{~{]]]))$]]]!]]!!]%&@$@#.@%++.$@##@$$])$#@.##@..@%%&-*-",
"=&.%%.%&%&&**&*+*+%*&&-***--*>---->==^->**=->===>-*-*+&+&+&*&***&--*>**&&+.%...@$$$#@@@.@#$]##]!)){{!{{.#$!]$]{!!$#$${!${,{#$$#@@{!#.&@######{]{$@#{]$@@.%%%+---",
">>--*@+*+.%+&%+**&>-*&+****-->---*>-;^=->>>->;==----&***->**&&+&*&***&--*&%.%##$$#@@##@@$$]#@]]$${$$#@$.%..@]$]!{#]]]{!!{$$]!@#.#!{.$].@@{){!)!{#@#@#.%.@+&++*--",
">>=;*+**%@%%%+&***--*-->***=->*>>=>-=^=>>=>^;;;;=>>-*&*-*-*-&&&&+%%%%.+&+...@#$]@+.@@...@@@@#$$#]{{{$]]#@%*&${{]{$#]${!#]$$]!.@@@$]@$!#%.%$#@@%++%%+..%@.+%+%&*-",
"*=>-+**>&&&%+&&++**--===>>=^=>---==>=/^>;=;(/^;=>;>&***--*&&&+&+&&&+.%++*%@%...@%*+%.+*@.#@@$]]#]$#]$$.*&%->@{{]]$]]#$]@@$]$].@..#@.##@#@%@@%%++..+%.#@@%++%@.++",
"**&*+===---+&-*&&&-&*;;;*=;(;^->>=-->^=-=;^(^^^>=--&**->*--+&*-*-*&&&**&-&.#..@@@.@@#&&$##$$]$$@@%.%&>;/-%+-.##.$###.@#..@$@@#@#.@.##]$#@.$$#%..#@.@#@$@++++&%.&",
"%&+&&->;;;-=**->-->--;^^->>/;/^=;=---^=-==^/_((==>>>-->=***--**-**&++*&&**++&+.@@@#]@*+#@$##$$..+&&&=^=/-+++@@$#@###@#$#@#@@@..%...@#$#@%#$!$@%%.@%@.%%%&*+**&&*",
"%+&&->>;//^;>->>>-->>_^=->;^;(_/^;--=(;-=;/(:_/=^>-***->**+&*&*--**&&*&*+-**+&%.@.@$.%%@#$#@@@#.*+%&;;>^*%*.$#$#$]{{@@@@@@%###@.+&&%#@#@.@.#.%+++..#$.++&+&&+&&&",
"+*-**&*;^/^^^>->>=->^_^>>>=;^;//^=->=/^===^(_^^>---*+&*-+&&***&&-**&&*&&&&&*+&+%%+&&-%%.#$]#]{#@&&*>>;>/>%&@$$$${~)$%.%&@#@@%+++&*&%.@#@@@%@.@.%.@.@@%%.*%+&%&&+",
"->>-*-->;(((_/>;=>-->:;>>====-==>&*->^_=>==/(;;>--*&&*&*&*+&*&-&*&+&+&&+.%*+++@.@.%&&@$@@]#@{$$@+%*->-*=*@+@#@##$$].%%+*%%@+&++%+.%+%.#@#.#@..%.%*++&-%-&*++++%&",
"*=*>=;>*==;//;=>=>&&*:/--*->>-&--*=>>;/;>-=^/;==>-*-&-**+&&+*&++&&..%...#%+%%%@.%+%&%.#@@#@#@.@.&&*>-&%&%..#$#$$$$#@@#+*+.%>-*&%+++&...@${$#@.%++&&+-=*----*--**",
"*--*-*&&-&+-=;;>>*+&=:/--&*>--*-*-&*>;/;**==^>>*-&+++&&&%++%..%++%%++...@.+%.+%%%+%%%..%@@@%.%@@&&*>-...#@.#$$$@$$$@@.&&%++;^-=>-&*+%.@#$#@@@++&***&&=->>>----*+",
"%%+*%+.&*&&**;^;=>>--(^-&&&*-*-***-**>^>*&*-=>*+**.&&-*&%%++%&&+&%%&+....%%++++@+-&+%.#@###@.###@@%%+@@@@%@@##@@@.#..%&&.%&^^=>=-&>*+*+@$@....%&**&%.%%-=>*+**&+",
"%..&&+%&&-*&*-*>*>->-^;++%++&&-**&->-=(;-*-=^^;=>>*&+*-+++%%%&*&..++&+%%.$@..%.#@*&###@$#$#@..@#@@.%.@@@%%+%.%%%%%%%%%++%.+=-%+=*&*&%+&@]###.%&+%+%.@$@%>-*+.%&+",
"#@@@#@.%%+&&%%.+&&+&&^=%++&+*%*&-->==;/=-**>-^==>=&%.+-++.....+%$#..+%@@#$$##@@$.&*@@@%.##@@%+...%%++%+%@+%%%.%+%%%@..#@%.%&%##++.%%@#%%$#]$@.%@@..]]]$#+&.#$@..",
"){{]$@.@%+&%%*+**&++&^/=-*&++++&*--->=^>*->->^=>-&&+%%&&%.@%...@@#......@##@@%+%%%+&+%+.@@%+++%%%+%%+.%%.@.%...+%.@.#..@%$.%.##.+..%+%@+.#$#@%@@@@#!!{]]$]{{!$#]",
"$##@@.&++&*&+++&&&++&//>*-***&&&+**&&>/>%&**&>---*&*+.+&+%@%%+++.+&&&%.%%%+.%&&%&+>>++&+.%%&+&&%..%%%.@..#%.@..+%...@%...@.%@@@.##@@@@$##${$]#$$$$,,!!!#]!]{]##$",
".@.%..&&+*&%%++%&&++&=;%%%*&&&+%.%%++*/;*&+*-->->=->&&&&&&+%++&*+++*+%%%+++%+*&%+&&-&%+&@.&+%+&%.%%+..+%%.@%%%+++.....@@##.@{{]]){$@#!{{#$)]#%.#${,!$#$@.@.##@@@",
"...%++&+%+.@+&&%.++.@->.%%&&&&&*&*+++-//=;-->---->--**-*&&+&*%%&&+*&&%%%%%++%&%%+&&&&%%*%%++..+.#.%&+%.%%+%@##.@@#@.$##$$$.#]{]]]]#..#$$.%+@+++&%@$]$##.@%.@@@@.",
"]##.$#%+@%&@+&+&%++++>;*+&+-&&***-&%&*^/=;=>*-=-*-&&+--+&+%+%+++*+&&%%+%%&+++@..+&&&&%%++&+%.@..#@@%.%.....##$##]##@#.#@.%+#@.%%..%++.@%.%++++++++.#$$@.@.%##]##",
"...+.%&&++**&*+++&***-^>+%&-&+*.%***&+*=>-;=----&*-**==>**&&..%&&+%&%%%.%+%%%+.@%+&%%%.@+%@%.@..#@@#@%%@%+%...$.@%.%.%..@%..#%++&&+&+.%+.%%%%+%@#$@$$]$$$##$#@@@",
"%+&-&&*&*****&&+++&*&>^-%+&*+&&+%*&.+**>----->-*&->&*=/^>*-&+%+&+%%+..%.%%%%@@.#$@%%.@@#%.@.%%++@@+%%+%.%+%&%%.%&&%%%%%.@#@@@.+++%+++.@%+.@#.%+.$]{##$]#$@#.#.++",
"+%+&&+&&-*&&&%+.%++&*&;>.%+*+&+*%*%@+->>-*--->=-*->**;/;-&*+%@@@##@##@@.%%%.%%+++%++@@#.%..@%+&+@%++.+..++&*%%.%++%%%..@@@@#@@%++++*&&+**>&+%+%%.@@$]@@.@.%&&&*+",
"+&-+++%+*&+%+.%]~#@%.@>-.%++&%#%@%%.*=**>**-*=>>***&+->>&&**&.@@#@.%%..%%&%&%++&->>-%.@.&++%+++%.%%..+..%+%+%..@.+%+@%%#...++&+**->=>>;/^^;>&*+....@@$@.@@&-+&-&",
"+*-@#%#.+]#%++%]'$#@##=-%&&*&%.+%+.%&&&+&+&&+*=>-**+%+&*&&>&%@@+%@@%+.#@.+&+%&&=/((>%..%&&*++++@.%%&.%%.%+%+%%%%+***+&&%+*&&-**--->==-;/==//;*&%.%.@@.+%+..*&%&.",
"#*>#!@##.@%..%%@@.+&++;-+**&+.%.+&%%%-&&-&***->>->*&%%+&++*&.#.%+$##%..%%+&%+%&-;;>&.@..&&**++%.%+%%%+*&+%&+&&&*->=-+*&-**+**>-*&+&--*>-@%;;=-&@..%@%*+@.#'$#~,,",
"#%^*%-**-&+%.%++&&++%*--+&&&+%%+*-&*&---*---&&&++&*%%@.%+&**.@+%%@@+.+.@@.@.%..&&@#%..+&&***++&&&&*&&&*&*&&+&*-=-==-*-*-*&&->=>**&&+&&&+.+*+%%.#$$$##]]{#]~@%{{]",
"%&=->>>-+%&&&&+&&+++%+>-&%++...+*%&+&>=>->>*&&&+%&&&%.%++&*-%#@@##$+%%#@@.%.%.&&%+%*.++--&*-&*&&***-*+-&&**-+&***-=>&*&&**&*&*&+@#.@#+#$]%###.$]##$..]$@+&&>-%+&",
"*&-&++>;>*+++%%&+++..%>;+@.$.##+*.%%.+>*%&%%.%...%&+.%@&*+--&@...@.+%%++.@.%&%+%++++.+*-**&*-+&+&-**-**&&**>&&*&*-=-.$#..%*+..%%@@@.+&%@.%%.@.@+%&+&+%%+***-*+&*",
"+...%+&>>++%%%+%.%%#@.*=%....@%%@.@#]$..@@@$$@.%+++++*+>>%&>**..+%%..%%%%%+&+++%*-&%++=**&--&%%.+++**-&&+*&-+&&%++--....@%*-&+**+++*>>&&++.%.%%%++++%%%++&+*+%*%",
"%+%+&&&>**%++&*+++....+=.$#@#%@@]@@$]@%+.@@@%..++&&&%&+++&&>--+%%%%.%++++&++&*-&*&+.@.*&+++%..%%...#%+%%++.+%.+&+%&*&++%%+&&%&&&+%*===->-&++..%++%+&+.%+++&&+++.",
"&+.%+++*+%.++%.%%%#$@#&-.##.....@#{]#..%##@@.%%++&*+&%%*&-&=>-%&%+%.%+++%.%%+++%%%.@@.%@#@#@#@#%...@.%%++@%+..%%%.+&+%++++&&%++%%%&>--*--*&+&++-*&***&&&&&%.#%*+",
"+%@@.+%+@..@@@....@@##%*%.@@####.@#...%@$..+&++++&+++.&+*++->*&+.#]#++@$$$#%...@##.$@@%.%....+..#@%%%++%%%+%...%+*&++&&%++&&&+&&&&*>>=**--*&*&*&+&+++&%.#@@@@.%%",
"%..%%%%+@.#.##..%#@.##+*+...#@@$+.%*+.%#$@%%.%%%+%%....%..@$@...{#$#.@#$#]$..@..##@.@@.+%%@@%%..@@.%.%+%+%&%.+*****-***&&&--&**&**>;=;---*&&&+%%%%++@#%%%%@.@@.%",
"+++&+&&+..@%%.%%%.%+%.%&*%%.@@]@%#+&&.#$$#@@##.@#####$.@@#$#@@+*.@@#%.$#].%..#.$$##@#.+++%..%+@.@%+%+&*&+&+%+&-*----&-*&-****&&+**-;=->-**&&&&&%..++%%+.%@..##.%",
"+&+&%&&+%..%.+%+......#++..#]#,]$#$@$#]{{]$#.@##$$#@@@..%%%.@#$+%%+%@.#@#@@.@@.#@@#@%.+.%&&%%%&%%%&*+%*&+*&&*-->->--->*-->->***&&->;-*-*%&*&++...+++&%++%%&+++&+",
"&&++++&%.@@.@@#$$$$$]$]##$]{{!)]{$##${!]]##.+%#@${@@..&%+&+.]]].@.&%+&+..+.%..+#@+%+%.+++&>-%%+&+&*&*-=-+&--*>=^==--+>>>-==;->*&&&*>*&*>&++++%++&&&&&&+&&*&&****",
"++%.@#.##$$$!#{!!]]]]]{@@]]]])]$]]$$$]!${$]#%##@#]@..%&%&*+#@.@..&&*>-++%%.%&&+@.%%+.%.+%&>&++&&*&*&->-+*->>>=;=;=*>&;;--->=-*&***>-&***&%+&++++&+&&&+&&*&*&&&&+",
"+.##]]]${]$${@.#]$]]{{@@#{{])<{!{{{){!,!)$@@@$@#@$*%+++&+-%.+%%.@-&>>-+@#.+%+%@%%.%+&%+&*&-*%&-*&**->--*-*>;*&>*--->==>--->&-&*-**&-&**---&&+&+&&+%&+&&*&++++%%@",
"+%@@##$]#$]!!]@#]$!!))$@#{{]~~$))!)!],~{!@&%.+%%@%>-%@@+*-.%++.%#..*>;-&*%+%+%@%.%--&+*--*++%%%++**&**&+*--***>=>-->;^-->>->-*->-&&-*-*>*&+&%+&&++*&&*&**&*+.%%+",
"*@#${!]!)!{{)!{{${{{]{{$@]]{[$]!)!!##{#.@&+&++%##%-&%@@-->*%%@.%##+*-&->>+%%&++.@%++..&*&&.##@.%.+*&&&*-&*-&&&--->>>^>*&->>--**>*+&&-*>-&*&-&++%++&++&*->---&&*&",
"*~'))!!)}'!)))))$]{{]{$@${$)[{]~,!$##].%$.%*%@+%+&*%%.@&**&&.#%$]+&++****%@.%..##.@@@#.+%%#$].%+.%%%%+*&%&&&&.*-**;-==**>-=-***>&+&-**-*->&>&&+%.%-&**=>^;==>>;*",
".,'')!!)~{#]!!]!!!{)!$$##$$,,{{!!{@@#@.%@@+**&+%%+*..@.+#@%@]!$)]@@.@%++%@]%%.%+.+@.#@@..#@#$@@%+.@..%@%%+.+%+&*&*=-;-*->>>-=>;=>*-=-->-==>>&-+&&+&+-->>>==>*->.",
"@@##]{$!]]]){!${!{${]#.%@#${#@##]$@@@@..#%+**&+.@**+..]##]@@#!]){#@.%+&.%++-++%+%.%....%.%%@@..++%%++%%%%&***&*----*^;>;;>>===^^>>->>=>->>=>-**-****&-*>**-*&&&.",
"$$$]]]##@.@$.%..]]###.@%%{]!$$#]]$]]]{]{]$]&&.###%&&+.##@@..@@#$@@.@..@@#.%+++*%@@@.@..%@%.%%.++&.%**-&%&--**&->>-;>;^;;>==;;=^==>->->***->-&*----+**-*&&&&++%%#",
"##@@@@@%@.@#.@.@{{$#$$$..{~{]]]))$]]]!]]!!]%&@$@#.@%++.$@##@$$])$#@.##@..@%%&-*-&%.@#@%%@&%+%%&--+++++&+&*-*----=>=>;==;>>;=-=->>-**-*+*+&-*&&**&&&**-&&++%&%%.@",
"$$$#@@@.@#$]##]!)){{!{{.#$!]$]{!!$#$${!${,{#$$#@@{!#.&@######{]{$@#{]$@@.%%%+---=&.%%.%&%&&**&*+*+%*&&-***--*>---->==^->**=->===>-*-*+&+&+&*&***&--*>**&&+.%...@",
"$#@@##@@$$]#@]]$${$$#@$.%..@]$]!{#]]]{!!{$$]!@#.#!{.$].@@{){!)!{#@#@#.%.@+&++*-->>--*@+*+.%+&%+**&>-*&+****-->---*>-;^=->>>->;==----&***->**&&+&*&***&--*&%.%##$",
"@+.@@...@@@@#$$#]{{{$]]#@%*&${{]{$#]${!#]$$]!.@@@$]@$!#%.%$#@@%++%%+..%@.+%+%&*->>=;*+**%@%%%+&***--*-->***=->*>>=>-=^=>>=>^;;;;=>>-*&*-*-*-&&&&+%%%%.+&+...@#$]",
"%*+%.+*@.#@@$]]#]$#]$$.*&%->@{{]]$]]#$]@@$]$].@..#@.##@#@%@@%%++..+%.#@@%++%@.++*=>-+**>&&&%+&&++**--===>>=^=>---==>=/^>;=;(/^;=>;>&***--*&&&+&+&&&+.%++*%@%...@",
"@.@@#&&$##$$]$$@@%.%&>;/-%+-.##.$###.@#..@$@@#@#.@.##]$#@.$$#%..#@.@#@$@++++&%.&**&*+===---+&-*&&&-&*;;;*=;(;^->>=-->^=-=;^(^^^>=--&**->*--+&*-*-*&&&**&-&.#..@@",
"@@#]@*+#@$##$$..+&&&=^=/-+++@@$#@###@#$#@#@@@..%...@#$#@%#$!$@%%.@%@.%%%&*+**&&*%&+&&->;;;-=**->-->--;^^->>/;/^=;=---^=-==^/_((==>>>-->=***--**-**&++*&&**++&+.@",
"@.@$.%%@#$#@@@#.*+%&;;>^*%*.$#$#$]{{@@@@@@%###@.+&&%#@#@.@.#.%+++..#$.++&+&&+&&&%+&&->>;//^;>->>>-->>_^=->;^;(_/^;--=(;-=;/(:_/=^>-***->**+&*&*--**&&*&*+-**+&%.",
"%+&&-%%.#$]#]{#@&&*>>;>/>%&@$$$${~)$%.%&@#@@%+++&*&%.@#@@@%@.@.%.@.@@%%.*%+&%&&++*-**&*;^/^^^>->>=->^_^>>>=;^;//^=->=/^===^(_^^>---*+&*-+&&***&&-**&&*&&&&&*+&+%",
"@.%&&@$@@]#@{$$@+%*->-*=*@+@#@##$$].%%+*%%@+&++%+.%+%.#@#.#@..%.%*++&-%-&*++++%&->>-*-->;(((_/>;=>-->:;>>====-==>&*->^_=>==/(;;>--*&&*&*&*+&*&-&*&+&+&&+.%*+++@.",
"%+%&%.#@@#@#@.@.&&*>-&%&%..#$#$$$$#@@#+*+.%>-*&%+++&...@${$#@.%++&&+-=*----*--***=*>=;>*==;//;=>=>&&*:/--*->>-&--*=>>;/;>-=^/;==>-*-&-**+&&+*&++&&..%...#%+%%%@.",
"%+%%%..%@@@%.%@@&&*>-...#@.#$$$@$$$@@.&&%++;^-=>-&*+%.@#$#@@@++&***&&=->>>----*+*--*-*&&-&+-=;;>>*+&=:/--&*>--*-*-&*>;/;**==^>>*-&+++&&&%++%..%++%%++...@.+%.+%%",
"+-&+%.#@###@.###@@%%+@@@@%@@##@@@.#..%&&.%&^^=>=-&>*+*+@$@....%&**&%.%%-=>*+**&+%%+*%+.&*&&**;^;=>>--(^-&&&*-*-***-**>^>*&*-=>*+**.&&-*&%%++%&&+&%%&+....%%++++@",
"@*&###@$#$#@..@#@@.%.@@@%%+%.%%%%%%%%%++%.+=-%+=*&*&%+&@]###.%&+%+%.@$@%>-*+.%&+%..&&+%&&-*&*-*>*>->-^;++%++&&-**&->-=(;-*-=^^;=>>*&+*-+++%%%&*&..++&+%%.$@..%.#",
".&*@@@%.##@@%+...%%++%+%@+%%%.%+%%%@..#@%.%&%##++.%%@#%%$#]$@.%@@..]]]$#+&.#$@..#@@@#@.%%+&&%%.+&&+&&^=%++&+*%*&-->==;/=-**>-^==>=&%.+-++.....+%$#..+%@@#$$##@@$",
"%%+&+%+.@@%+++%%%+%%+.%%.@.%...+%.@.#..@%$.%.##.+..%+%@+.#$#@%@@@@#!!{]]$]{{!$#]){{]$@.@%+&%%*+**&++&^/=-*&++++&*--->=^>*->->^=>-&&+%%&&%.@%...@@#......@##@@%+%",
"&+>>++&+.%%&+&&%..%%%.@..#%.@..+%...@%...@.%@@@.##@@@@$##${$]#$$$$,,!!!#]!]{]##$$##@@.&++&*&+++&&&++&//>*-***&&&+**&&>/>%&**&>---*&*+.+&+%@%%+++.+&&&%.%%%+.%&&%",
"+&&-&%+&@.&+%+&%.%%+..+%%.@%%%+++.....@@##.@{{]]){$@#!{{#$)]#%.#${,!$#$@.@.##@@@.@.%..&&+*&%%++%&&++&=;%%%*&&&+%.%%++*/;*&+*-->->=->&&&&&&+%++&*+++*+%%%+++%+*&%",
"+&&&&%%*%%++..+.#.%&+%.%%+%@##.@@#@.$##$$$.#]{]]]]#..#$$.%+@+++&%@$]$##.@%.@@@@....%++&+%+.@+&&%.++.@->.%%&&&&&*&*+++-//=;-->---->--**-*&&+&*%%&&+*&&%%%%%++%&%%",
"+&&&&%%++&+%.@..#@@%.%.....##$##]##@#.#@.%+#@.%%..%++.@%.%++++++++.#$$@.@.%##]##]##.$#%+@%&@+&+&%++++>;*+&+-&&***-&%&*^/=;=>*-=-*-&&+--+&+%+%+++*+&&%%+%%&+++@..",
"%+&%%%.@+%@%.@..#@@#@%%@%+%...$.@%.%.%..@%..#%++&&+&+.%+.%%%%+%@#$@$$]$$$##$#@@@...+.%&&++**&*+++&***-^>+%&-&+*.%***&+*=>-;=----&*-**==>**&&..%&&+%&%%%.%+%%%+.@",
"$@%%.@@#%.@.%%++@@+%%+%.%+%&%%.%&&%%%%%.@#@@@.+++%+++.@%+.@#.%+.$]{##$]#$@#.#.++%+&-&&*&*****&&+++&*&>^-%+&*+&&+%*&.+**>----->-*&->&*=/^>*-&+%+&+%%+..%.%%%%@@.#",
"+%++@@#.%..@%+&+@%++.+..++&*%%.%++%%%..@@@@#@@%++++*&&+**>&+%+%%.@@$]@@.@.%&&&*++%+&&+&&-*&&&%+.%++&*&;>.%+*+&+*%*%@+->>-*--->=-*->**;/;-&*+%@@@##@##@@.%%%.%%++",
"->>-%.@.&++%+++%.%%..+..%+%+%..@.+%+@%%#...++&+**->=>>;/^^;>&*+....@@$@.@@&-+&-&+&-+++%+*&+%+.%]~#@%.@>-.%++&%#%@%%.*=**>**-*=>>***&+->>&&**&.@@#@.%%..%%&%&%++&",
"/((>%..%&&*++++@.%%&.%%.%+%+%%%%+***+&&%+*&&-**--->==-;/==//;*&%.%.@@.+%+..*&%&.+*-@#%#.+]#%++%]'$#@##=-%&&*&%.+%+.%&&&+&+&&+*=>-**+%+&*&&>&%@@+%@@%+.#@.+&+%&&=",
";;>&.@..&&**++%.%+%%%+*&+%&+&&&*->=-+*&-**+**>-*&+&--*>-@%;;=-&@..%@%*+@.#'$#~,,#*>#!@##.@%..%%@@.+&++;-+**&+.%.+&%%%-&&-&***->>->*&%%+&++*&.#.%+$##%..%%+&%+%&-",
"&@#%..+&&***++&&&&*&&&*&*&&+&*-=-==-*-*-*&&->=>**&&+&&&+.+*+%%.#$$$##]]{#]~@%{{]#%^*%-**-&+%.%++&&++%*--+&&&+%%+*-&*&---*---&&&++&*%%@.%+&**.@+%%@@+.+.@@.@.%..&",
"%+%*.++--&*-&*&&***-*+-&&**-+&***-=>&*&&**&*&*&+@#.@#+#$]%###.$]##$..]$@+&&>-%+&%&=->>>-+%&&&&+&&+++%+>-&%++...+*%&+&>=>->>*&&&+%&&&%.%++&*-%#@@##$+%%#@@.%.%.&&",
"++++.+*-**&*-+&+&-**-**&&**>&&*&*-=-.$#..%*+..%%@@@.+&%@.%%.@.@+%&+&+%%+***-*+&**&-&++>;>*+++%%&+++..%>;+@.$.##+*.%%.+>*%&%%.%...%&+.%@&*+--&@...@.+%%++.@.%&%+%",
"*-&%++=**&--&%%.+++**-&&+*&-+&&%++--....@%*-&+**+++*>>&&++.%.%%%++++%%%++&+*+%*%+...%+&>>++%%%+%.%%#@.*=%....@%%@.@#]$..@@@$$@.%+++++*+>>%&>**..+%%..%%%%%+&+++%",
"*&+.@.*&+++%..%%...#%+%%++.+%.+&+%&*&++%%+&&%&&&+%*===->-&++..%++%+&+.%+++&&+++.%+%+&&&>**%++&*+++....+=.$#@#%@@]@@$]@%+.@@@%..++&&&%&+++&&>--+%%%%.%++++&++&*-&",
"%%.@@.%@#@#@#@#%...@.%%++@%+..%%%.+&+%++++&&%++%%%&>--*--*&+&++-*&***&&&&&%.#%*+&+.%+++*+%.++%.%%%#$@#&-.##.....@#{]#..%##@@.%%++&*+&%%*&-&=>-%&%+%.%+++%.%%+++%",
"##.$@@%.%....+..#@%%%++%%%+%...%+*&++&&%++&&&+&&&&*>>=**--*&*&*&+&+++&%.#@@@@.%%+%@@.+%+@..@@@....@@##%*%.@@####.@#...%@$..+&++++&+++.&+*++->*&+.#]#++@$$$#%...@",
"##@.@@.+%%@@%%..@@.%.%+%+%&%.+*****-***&&&--&**&**>;=;---*&&&+%%%%++@#%%%%@.@@.%%..%%%%+@.#.##..%#@.##+*+...#@@$+.%*+.%#$@%%.%%%+%%....%..@$@...{#$#.@#$#]$..@..",
"$##@#.+++%..%+@.@%+%+&*&+&+%+&-*----&-*&-****&&+**-;=->-**&&&&&%..++%%+.%@..##.%+++&+&&+..@%%.%%%.%+%.%&*%%.@@]@%#+&&.#$$#@@##.@#####$.@@#$#@@+*.@@#%.$#].%..#.$",
"@@#@%.+.%&&%%%&%%%&*+%*&+*&&*-->->--->*-->->***&&->;-*-*%&*&++...+++&%++%%&+++&++&+&%&&+%..%.+%+......#++..#]#,]$#$@$#]{{]$#.@##$$#@@@..%%%.@#$+%%+%@.#@#@@.@@.#",
"@+%+%.+++&>-%%+&+&*&*-=-+&--*>=^==--+>>>-==;->*&&&*>*&*>&++++%++&&&&&&+&&*&&****&&++++&%.@@.@@#$$$$$]$]##$]{{!)]{$##${!]]##.+%#@${@@..&%+&+.]]].@.&%+&+..+.%..+#",
".%%+.%.+%&>&++&&*&*&->-+*->>>=;=;=*>&;;--->=-*&***>-&***&%+&++++&+&&&+&&*&*&&&&+++%.@#.##$$$!#{!!]]]]]{@@]]]])]$]]$$$]!${$]#%##@#]@..%&%&*+#@.@..&&*>-++%%.%&&+@",
"%.%+&%+&*&-*%&-*&**->--*-*>;*&>*--->==>--->&-&*-**&-&**---&&+&+&&+%&+&&*&++++%%@+.##]]]${]$${@.#]$]]{{@@#{{])<{!{{{){!,!)$@@@$@#@$*%+++&+-%.+%%.@-&>>-+@#.+%+%@%",
".%--&+*--*++%%%++**&**&+*--***>=>-->;^-->>->-*->-&&-*-*>*&+&%+&&++*&&*&**&*+.%%++%@@##$]#$]!!]@#]$!!))$@#{{]~~$))!)!],~{!@&%.+%%@%>-%@@+*-.%++.%#..*>;-&*%+%+%@%",
"@%++..&*&&.##@.%.+*&&&*-&*-&&&--->>>^>*&->>--**>*+&&-*>-&*&-&++%++&++&*->---&&*&*@#${!]!)!{{)!{{${{{]{{$@]]{[$]!)!!##{#.@&+&++%##%-&%@@-->*%%@.%##+*-&->>+%%&++.",
"#.@@@#.+%%#$].%+.%%%%+*&%&&&&.*-**;-==**>-=-***>&+&-**-*->&>&&+%.%-&**=>^;==>>;**~'))!!)}'!)))))$]{{]{$@${$)[{]~,!$##].%$.%*%@+%+&*%%.@&**&&.#%$]+&++****%@.%..#"};
