/* XPM */
static char * bg_tile_small_blackish_xpm[] = {
"160 90 73 1",
" 	c None",
".	c #33383D",
"+	c #31353B",
"@	c #33373D",
"#	c #34393E",
"$	c #35393D",
"%	c #353A3F",
"&	c #32373C",
"*	c #32363A",
"=	c #34383C",
"-	c #31363B",
";	c #30353A",
">	c #303438",
",	c #313539",
"'	c #2D3135",
")	c #2F3337",
"!	c #2C3034",
"~	c #2E3236",
"{	c #30343A",
"]	c #303338",
"^	c #2F3237",
"/	c #3A3F44",
"(	c #3C4146",
"_	c #393E43",
":	c #383D42",
"<	c #3B4045",
"[	c #373C41",
"}	c #363B40",
"|	c #393D43",
"1	c #383C42",
"2	c #373B3F",
"3	c #393D41",
"4	c #363A3E",
"5	c #3A3E42",
"6	c #33373B",
"7	c #383B3E",
"8	c #32363C",
"9	c #2B2F33",
"0	c #2D3237",
"a	c #383C40",
"b	c #373B41",
"c	c #363A40",
"d	c #32353A",
"e	c #2F3439",
"f	c #35393F",
"g	c #2A2E32",
"h	c #292D31",
"i	c #292C31",
"j	c #2E3136",
"k	c #2E3338",
"l	c #282C30",
"m	c #2A2D32",
"n	c #272B2F",
"o	c #2B2E33",
"p	c #313439",
"q	c #2D3035",
"r	c #35383D",
"s	c #3B3F43",
"t	c #2C2F34",
"u	c #3C4044",
"v	c #3D4145",
"w	c #3E4144",
"x	c #34393C",
"y	c #2C3136",
"z	c #32373A",
"A	c #33363B",
"B	c #303538",
"C	c #34373C",
"D	c #33383B",
"E	c #3F4449",
"F	c #2B3035",
"G	c #3D4247",
"H	c #3E4348",
".+.@#....$.#%..&*====&=&&-.-&*;>,>')!)>)~~~)'~!'~>)'))~)''~~,)*,{*,*))~~~''~]^~=./((_::_<[#}::}:::[|:%%$#%%//[[:1[..#..&..->>,-&&*>=...-$=&=23452=..=&**6=766.&-",
"8.&....&.&&....+*&6**6&&&;>>>,>))))>9!~!!~~'''99~~)~~'~)~~'~)>>)>>>>,)>0>>)>,;;.=.##}[%:}}}5a3%b1b%bc#.&.#%[#.##}%......#&*>>;-..>>*..}$$2==$325a$..&-;.&**)*-&-",
".......&=&=&&.-*;=6>>);&;))>>,)~~)!~!9!!~''!!'9''~)~)~>>>)~),>))))*>>)>;,,,**&&$%%%}}}##...%.&.@cc###@.&&[}:%%#}}%}}}[}[}%2;;=$$$&;;-.##....==$4........$=6**->&",
",&==$=&&=;&*&&;))*****;*,>)>))))'~'~!''!~~!')')~~)>>)>*>*,)>,,>>,,,>>),,d*6,&&..$$....=&...$....[b%#%%%..[<[}}}||%}}}:}}::}&;=%.$..&--.%.$$=%%}_%#..##@..=&6,)>)",
"',=66=&;&;;>>;>*>*6>,,)>>>))>~))))~''9)~>>')~'''~)>)>*,*,*,>,>>>;))>~>>,;*=&....%%%#..=..$%}$$}:|_[[1[[.#%:}%}[:1%#%%[:%[/[#%%#..a:$.;.$$$$$#a2a%.#a}%...&&&*)))",
"~~))>=*>*.&-;8+>>,~)>,*>>>>))~)))>~)!9')~~~)~!'')))),>>>)~>>,,*,>,>>>;))>,&=&$$%4$..$$==%%2#.}}%%[%%#.%.&...}%}:[#}}}b::[%%2:.$.#:a.%2.==a5a353a$.$.#.&.=*;**>))",
"~~'!>*>>&=&&8+{e>>))>))~>>>')~>~~'~)'9'~~'~9!!!!'~~)>,>)>)>),,;,*6666=*;*====$42=*..=.......#%%#}b[[%22$=&>;%[[}[%#}f[:#}%%23.==.%2.%3$&.&%$.=6*-88+..&.=*&-&,>)",
">'~)*>>~,,,6*;;**>>))'''~~'9'~)))''~'g9~!'!hg9!'~!~,>>>))>,,,*,*,,,*=&**>6=&=.==6>-&=*>..#..%}}#}%$244=>,6)0.[[}}%}2#%}..%242.=..$..##.$.8..&&**=.+8.#..&--&=.**",
">>,>*''')))*,)>,,,),>!!!>'!i!9)~~'))j9')'!9h999~')),>>)~>))*,>)>)>,,,>>;),=$=.===...$,;4$#%%}%%.=&=6,~!g)6*k.##.%#$#.=$...4=.$.$...$#}%$..%%$&..$=..#.%.----;&.;",
"6,*,,)~!!!)'>>)~))~))!99)~~g!g9'!')))9')''9glhh''~~~))~'>>>))>>)>>,**>,,>>**;*====$2=>*$.%##%%..*,,,'9'g)**-..%#.##$.$%#.$.....&....#f#.&#%:%.&&..8..8&&;>*>>;;>",
"6*,,)~~!mm9!~)~~~^)~~l9')~!9!hlg9!))'h!)'!ghnlg'9~)>>>)~>>*,>,>))>>,,>,>*)>>*,6==..4=&&=$%#...$.>*6,!!~9>6>.%#%#%}[[......&$$$..-;;&#@#....#.&--+..$4=**,*,,*,,,",
"*>)>>,>!omo99~)~~')~ol9~~~'!9!gg9')~'g9'''9hl99~)))>*,>)*,,>>>,,)>>,,>,;,,,>*,*&&-;;)6&.$%}#}a$.,,>~~!~g~6;.%%%%[<_%&.&;.$..&***,>;&..#...&....&.====66=>&*;&;,*",
")~~)>))~!iihlg~!'~)^~n!~~'''')''~,>)~9l'~''gh!!~))>,,>,>,>*,>,),>,*;*,;*=&>***=.=.&;;=4..}#.[%%.*6>)~)>'>=-.#.##f%}.8&*>&&.*,**6*=&*&.#.#.#=..&.&>*-,)6),>****6,",
">'>~'!~>''!gg!'~'~;,]ng))>)~~)p))>'~~!m!~)'9g!''~)>),)>>*,,*>,**,,==&===$&*6&&=.&*&;&.$..#.#....;,>~),6,&..#%#%%%%#.=$*>*=6~)>,6***;....%[%$..&-*;;*)q>))))>))>>",
">))>)>,,),*)'!!~~>*,'ng));>~))>)>),>~!g!>>''9~~>),***,,,&**&==&**&&**=..=.-&=-&&&*666..&...&.&..;;>~)==.$..$%%%.%%%.==,,&**!9)'~),>*&..$%#...--;>>>;,')~~~))))>*",
"6&*e&*=,>,,>>!9!'~0))h9),;,>)>)>>>)>>~9~>,>)'~>*>>=,,)>,&6**6;,*;&&;*=...8&----.*),*6=$.$$$..###..&&-=...&..##....$..&,,=&,99'~'),~>*>-.%.....&;>>;&.66)'~>*>>,*",
"&..;{-&;;k>,>)>~]~)~)9!**&**,,)>>,)~)'h!)>)'99!'~~>,*>)***66&;>;..-*;-&&.4...&.$=>,$$$.%$%#....#...&....&8-&.&&&&&&&&&**&=*')6*'],>,6*;=2$$$=&;-&-&..%=6~)>*=&;*",
"#...$==&&*,,66=*,,*,,9q6**,*>6>,))~''!g')>>~)9''~',6=*)**=====*&4$..*&==$4%$$..%=;>===&.##..&-.@@8&--&-&.*&&&.&-&&&..=$=&=6,&$$**=66=$6&%$24=.&....}}}%$*;.$%...",
"_aa24=.=&*,66>*>>,**,9g')>,****,>)))~'9~>)~)~9'~),,*66,,6==&=====$=......$$..&*&&&*,*&-...8---&&8-&&-.&&.=.&...*&===$.==&4=&.$$.*==6*6=-.$%$=&....#::a}}%2[[3%$2",
"%$$==.;**,>,***,,,**,gg~>)>>>,,,*>>,,~g~6,>>,~)))>,>*=*,*&=&&***.-;;;&.&&&-.&;;&;*0~**;-.&8;*;;&..&&&....r&....*&..==&..==.&....$$.===4$$%a42$%%%%/s:::#23}[2$$%",
".=.&.=,,*>,66**&,,-*,'!666>,,,*6=66**>g!>,*>))~)~')~,,,,,;*&*-;>***>-&&&---&->;&*;,),6*;=.;*&*;&.&&*..-&&.=&8&---.......$$..aa22_a%.$3aa$%_2$&.$%as:%$%..=.$$=.=",
"===&**,*6*==*,;&.*-==)j=66,,,,,>,>***)gg'!))~))))~))>>)>,,*,>&&,;*>,;&&&&&--&;&&*;,,,66>&&**..-.$.&;-&.&&-&.$#...$..4$$%44.$}a2222$..$%%.&-.**-;&=42%$#.=&..===.",
"2$$=4$6*=6,=*;-;&****~t>*,*),,>>>),6,>9g'!'~>)')>),,*))*,*6*&***>*,,6&-&&;---=..*;,,;&&**,-&@...$==&.&.....$$%##2$$.$.$..&-$..&&..&*-.=&.&-*****--.$%%..=.&$$2$$",
"===*=6,,**>>,>---;>>>)9~*6,),*>=6>>>,*>'~)!')))),>)>>''~>>,,==&;;*&,&&&.&-&&&-..&*,&&&.=*&.&....$.=$.&&.&-&...%.=&.&.&...&..$&**;;*,*.&*=&&&&*&=$4=4%2%%%$$%$===",
"6*,),,>,>>>>>,;***,>,~9)6*,>*,,*6>,=*>>~)))))~)>,)~,>'g9~>);*&*;*&&-..&.&&&&...$4=66=.=$&.=.&&--..-&&-8.&-&;&&.&;;&&&&&.=$=.=.***&***==6*==$.&*.%2a$$%}#%=$.$=**",
"*6*,,*,,)>,,,6*=6**,>,!~=6*>*,*>6>6=*)~~)>)))~')>)~>>!g!),>*&.==$$=$$=..&&&.&&-**6**=.$.&..=8-;-.8--.-@@--;>&&.&**&6&===...$.=6****>,,*>>~,*&*&&..=4}...==&,,,>*",
"*,)***6*>,*6*=62u$=6==~)=6**,6$6=&6=>'>>~>>)>'~~>>>,*)~~,,>>;...$=.&&..&8;&;&-*,)~~)&...,**&+++8.&&..-..&*&*&.===*6*=&&$...**,*>>)~'~~!g99!~,>*....=.%=.==,)*,),",
"*>)=$6$=*2$6**62v4$=$$')6,,>,6=*6*=6,,,*,*,,*>'~)>>*6*,>,,0;&=.-&.=&-.$=.-;*&;,'ghh~&..&,,>*-+-=.&&;.88.&*&*&&6&*>>>*;,&*>,,)>>)))~'')!g''gg!>,&.&.==.*6*==>,6,=",
"$>~$3=$$==6==66===*,**!)*>>,*=6=*,666),,),>>>)~~)~>,66*,**>;=$.&-%$$&..&&-;&-&;)!!~,.===,,>>--&.&*6&&+>;*&;*;;,>)~')*>,)>>*>]~^>,*,))>~)=6!!'),=..&=&>*==$w4$uss",
"$69>6)>>),*6=6**,,**6>))*,,,*66*>),>,)))>))),,,**,>66==6*,>>==-&&..-.*..=...&.=,,=$6..*,,>>>*-,;;;>,,,>,>;,*;>)')'')>)>)>,,)~'~>>;,*,,,*=*>*66=$444$$22a$2u=6aa2",
"6,')~~~)*6,,,,*,,***6*~),6**===*>6,*,~'~)0~>,,,*6,,,&=6**,>)&$=.#$%-&&$=..&.&.;;6*&>.**)),>),>,,>>>)>*),,>>)*,>>>)'~,>,,>>,>,>,*=$==$*$426$$$=42$$4=.24=*,,~)6*,",
">,),**~!~>***66,***==6~!*==4=$$*>=66=*~>6;&&.&===6,*.&=,>*)),=.....-&&--...&;&*&-***.->)>>,>)*;*;)ee)>>,,>>~,,>,>)')=4$==6>*==66====*,6==&&....-&;*;-&6*>>>)>*,>",
"*=x=6*,~~**6&6*6=66$==>'6=...=&&===$24=====44==&*****>*~~6,~>>..-&&..&&&&&-;-**6>);&--y]>p));&&.--+e>);;*>;)*,,&**))=...=&>),*>>***>~~,,**.&.&&&--**&&&**,*>*6>6",
"6*6*,,,~>>6**,>***====*'=4$=$&..2=.%2=&*.=.=&=.**;,,6,***,,~))-&&&&.&---*;--;>),>,*.=.>,***&..88...$&*&&**=*&=*;-8,>;--&&-,,&{;,*6>'''^~),**==&--&*;*=&***,,*zz=",
",*=6***>*6=**&.&&&$4=$,).$$......#a}#..&$$==.&&**;>*pA6>,),'0)&;&-&.&*--&.&&---&&&....&=$.$.$.$8.....&&*+.&-..&&&@*,*&--**,,&**666,~))>))>,*,**k>;>>>;,,;,6=$6B*",
"*6===*6*=====...====$$6>&...$$$$..$...&=%..*;*--*;**dC;*>**k0>;-.$}$--.4%%$&....$$.%..&.&....-..#.&&8+*&8&-&.==6*>;**;;&**,,,*,,;,>~~'>>))>,>,>;*;--*;&=$=====DD",
"6==&666*==$=$$==&$=.$$*>*=..$..%-.&>*.&$%@8&.&&&-&&....&..=%===.a$%$..$%#}%.....##.....-&&..&8...@.8.&*6*&;&.*>>>>>)>>>,,,)),>>,>>~!'!)))>,,,*&&&&**=$&&&&===xxD",
"***,*,,*===&&=&&&.&*&=&,>&&...}.&$*;;.$%%#..$$.=#####%.==$%$==*>...$&.f#c@&..$.%f##.#.---&..&+...8+8-;>,*;*&*,)])))),)>,)>>>>,,*>>)!')~)>>,,,,;&..**&&*=&===$$=6",
"*,*,6,,*6==&.-&-......$-*=.#}#/}%$4=%#}[a}%#.=$#ff#@....&&&.=$4*&&*&..#.#@...=.#..$.&.-=&,,6&&;888;>d8>,*>p{>))~)~)))j>))~)~>>>,,)~!)>)>6,>,**=..-**;&**&6,***,*",
",,****,&===...$%%%%%2%2$$4}[[:_}[%##%[:}c##.-&$.f[..@.;&-;-.222===;&-;-..+.&..-$.-&-&.-**,~)6&*;-;>,>)')*,))>~'9''))*~~~)''!)~>,,,>j>,>0,****&**;;;;,,*;,>,,>>>>",
"**6==$=$$4%%:$a::}}}}}a..}}}}_}%}}%%%}:%[%}#&$$.$2...8;6,>-$=====;,>~)**&&.&,;-..&&*=&.*&,~,**,,>,>,)~)*>)0~0q!'!'>~p!!)))~')>,>>>~),>>>,6*;***-;*;,;*;;>,>,,,,*",
"*=$$222%a2%%[..#}%}}aa..#[[}_E[:[[[_[:/:_%...%.$=4>&--*,d^6.*&&==),~~)*=$=*&*6=&&=&*;&*;>,)>6,k>,>>)~))>)>0F>,~>)))~'q~)))~,),>)>>,),>>))),,*,*;;*&,*,;>,****66=",
"*&==$$%}$%}::}.#}%::_5%.#[[}<<%__1_:}sua3=;&.-&&=&0)&==*>)=6**.&$==>~F),>6*6*6=&=&kk;*ek)>*-&&&**>>,>>,*>)k>>>~'~))~!9))~~)~)>)0),,)>)>~>,*,&*;;**>,,>;>>,>*C66*",
">=$%[:}:_:[[_:[a%[[[}[a%.}}[G%c:|::##a$..;-;--&$$&),&==))~>66=.&$$*>),)~~*66,**==&--==;>,;.$$..&=*>,,,>),>k;;,)))~~~9~>,)~~))>>~>*,,)>~),>,),**&**,**,>)~))),,>,",
"><(__::_H(:_____%}[[}[%.%a%_G[}</:%##2.&4.&>&=-&*;>&&..;>>,,=$&42*;-*>>>>6==6=.$$....$.-&&#%}.8-=&6&&*>,&;{;;=>)>>t)''>>~)')>>>~,*,)>>)>)~,~,,*8C8),>]'~9!''~jt>",
"./((_::_<[#}::}:::[|:%%$#%%//[[:1[..#..&..->>,-&&*>=...-$=&=23452=..=&**6=766.&-.+.@#....$.#%..&*====&=&&-.-&*;>,>')!)>)~~~)'~!'~>)'))~)''~~,)*,{*,*))~~~''~]^~=",
"=.##}[%:}}}5a3%b1b%bc#.&.#%[#.##}%......#&*>>;-..>>*..}$$2==$325a$..&-;.&**)*-&-8.&....&.&&....+*&6**6&&&;>>>,>))))>9!~!!~~'''99~~)~~'~)~~'~)>>)>>>>,)>0>>)>,;;.",
"%%%}}}##...%.&.@cc###@.&&[}:%%#}}%}}}[}[}%2;;=$$$&;;-.##....==$4........$=6**->&.......&=&=&&.-*;=6>>);&;))>>,)~~)!~!9!!~''!!'9''~)~)~>>>)~),>))))*>>)>;,,,**&&$",
"$$....=&...$....[b%#%%%..[<[}}}||%}}}:}}::}&;=%.$..&--.%.$$=%%}_%#..##@..=&6,)>),&==$=&&=;&*&&;))*****;*,>)>))))'~'~!''!~~!')')~~)>>)>*>*,)>,,>>,,,>>),,d*6,&&..",
"%%%#..=..$%}$$}:|_[[1[[.#%:}%}[:1%#%%[:%[/[#%%#..a:$.;.$$$$$#a2a%.#a}%...&&&*)))',=66=&;&;;>>;>*>*6>,,)>>>))>~))))~''9)~>>')~'''~)>)>*,*,*,>,>>>;))>~>>,;*=&....",
"4$..$$==%%2#.}}%%[%%#.%.&...}%}:[#}}}b::[%%2:.$.#:a.%2.==a5a353a$.$.#.&.=*;**>))~~))>=*>*.&-;8+>>,~)>,*>>>>))~)))>~)!9')~~~)~!'')))),>>>)~>>,,*,>,>>>;))>,&=&$$%",
"=*..=.......#%%#}b[[%22$=&>;%[[}[%#}f[:#}%%23.==.%2.%3$&.&%$.=6*-88+..&.=*&-&,>)~~'!>*>>&=&&8+{e>>))>))~>>>')~>~~'~)'9'~~'~9!!!!'~~)>,>)>)>),,;,*6666=*;*====$42",
"6>-&=*>..#..%}}#}%$244=>,6)0.[[}}%}2#%}..%242.=..$..##.$.8..&&**=.+8.#..&--&=.**>'~)*>>~,,,6*;;**>>))'''~~'9'~)))''~'g9~!'!hg9!'~!~,>>>))>,,,*,*,,,*=&**>6=&=.==",
"=...$,;4$#%%}%%.=&=6,~!g)6*k.##.%#$#.=$...4=.$.$...$#}%$..%%$&..$=..#.%.----;&.;>>,>*''')))*,)>,,,),>!!!>'!i!9)~~'))j9')'!9h999~')),>>)~>))*,>)>)>,,,>>;),=$=.==",
"==$2=>*$.%##%%..*,,,'9'g)**-..%#.##$.$%#.$.....&....#f#.&#%:%.&&..8..8&&;>*>>;;>6,*,,)~!!!)'>>)~))~))!99)~~g!g9'!')))9')''9glhh''~~~))~'>>>))>>)>>,**>,,>>**;*==",
"=..4=&&=$%#...$.>*6,!!~9>6>.%#%#%}[[......&$$$..-;;&#@#....#.&--+..$4=**,*,,*,,,6*,,)~~!mm9!~)~~~^)~~l9')~!9!hlg9!))'h!)'!ghnlg'9~)>>>)~>>*,>,>))>>,,>,>*)>>*,6=",
"&-;;)6&.$%}#}a$.,,>~~!~g~6;.%%%%[<_%&.&;.$..&***,>;&..#...&....&.====66=>&*;&;,**>)>>,>!omo99~)~~')~ol9~~~'!9!gg9')~'g9'''9hl99~)))>*,>)*,,>>>,,)>>,,>,;,,,>*,*&",
"=.&;;=4..}#.[%%.*6>)~)>'>=-.#.##f%}.8&*>&&.*,**6*=&*&.#.#.#=..&.&>*-,)6),>****6,)~~)>))~!iihlg~!'~)^~n!~~'''')''~,>)~9l'~''gh!!~))>,,>,>,>*,>,),>,*;*,;*=&>***=.",
"&*&;&.$..#.#....;,>~),6,&..#%#%%%%#.=$*>*=6~)>,6***;....%[%$..&-*;;*)q>))))>))>>>'>~'!~>''!gg!'~'~;,]ng))>)~~)p))>'~~!m!~)'9g!''~)>),)>>*,,*>,**,,==&===$&*6&&=.",
"&*666..&...&.&..;;>~)==.$..$%%%.%%%.==,,&**!9)'~),>*&..$%#...--;>>>;,')~~~))))>*>))>)>,,),*)'!!~~>*,'ng));>~))>)>),>~!g!>>''9~~>),***,,,&**&==&**&&**=..=.-&=-&&",
"*),*6=$.$$$..###..&&-=...&..##....$..&,,=&,99'~'),~>*>-.%.....&;>>;&.66)'~>*>>,*6&*e&*=,>,,>>!9!'~0))h9),;,>)>)>>>)>>~9~>,>)'~>*>>=,,)>,&6**6;,*;&&;*=...8&----.",
"=>,$$$.%$%#....#...&....&8-&.&&&&&&&&&**&=*')6*'],>,6*;=2$$$=&;-&-&..%=6~)>*=&;*&..;{-&;;k>,>)>~]~)~)9!**&**,,)>>,)~)'h!)>)'99!'~~>,*>)***66&;>;..-*;-&&.4...&.$",
"=;>===&.##..&-.@@8&--&-&.*&&&.&-&&&..=$=&=6,&$$**=66=$6&%$24=.&....}}}%$*;.$%...#...$==&&*,,66=*,,*,,9q6**,*>6>,))~''!g')>>~)9''~',6=*)**=====*&4$..*&==$4%$$..%",
"&&*,*&-...8---&&8-&&-.&&.=.&...*&===$.==&4=&.$$.*==6*6=-.$%$=&....#::a}}%2[[3%$2_aa24=.=&*,66>*>>,**,9g')>,****,>)))~'9~>)~)~9'~),,*66,,6==&=====$=......$$..&*&",
";*0~**;-.&8;*;;&..&&&....r&....*&..==&..==.&....$$.===4$$%a42$%%%%/s:::#23}[2$$%%$$==.;**,>,***,,,**,gg~>)>>>,,,*>>,,~g~6,>>,~)))>,>*=*,*&=&&***.-;;;&.&&&-.&;;&",
"*;,),6*;=.;*&*;&.&&*..-&&.=&8&---.......$$..aa22_a%.$3aa$%_2$&.$%as:%$%..=.$$=.=.=.&.=,,*>,66**&,,-*,'!666>,,,*6=66**>g!>,*>))~)~')~,,,,,;*&*-;>***>-&&&---&->;&",
"*;,,,66>&&**..-.$.&;-&.&&-&.$#...$..4$$%44.$}a2222$..$%%.&-.**-;&=42%$#.=&..===.===&**,*6*==*,;&.*-==)j=66,,,,,>,>***)gg'!))~))))~))>>)>,,*,>&&,;*>,;&&&&&--&;&&",
"*;,,;&&**,-&@...$==&.&.....$$%##2$$.$.$..&-$..&&..&*-.=&.&-*****--.$%%..=.&$$2$$2$$=4$6*=6,=*;-;&****~t>*,*),,>>>),6,>9g'!'~>)')>),,*))*,*6*&***>*,,6&-&&;---=..",
"&*,&&&.=*&.&....$.=$.&&.&-&...%.=&.&.&...&..$&**;;*,*.&*=&&&&*&=$4=4%2%%%$$%$======*=6,,**>>,>---;>>>)9~*6,),*>=6>>>,*>'~)!')))),>)>>''~>>,,==&;;*&,&&&.&-&&&-..",
"4=66=.=$&.=.&&--..-&&-8.&-&;&&.&;;&&&&&.=$=.=.***&***==6*==$.&*.%2a$$%}#%=$.$=**6*,),,>,>>>>>,;***,>,~9)6*,>*,,*6>,=*>>~)))))~)>,)~,>'g9~>);*&*;*&&-..&.&&&&...$",
"*6**=.$.&..=8-;-.8--.-@@--;>&&.&**&6&===...$.=6****>,,*>>~,*&*&&..=4}...==&,,,>**6*,,*,,)>,,,6*=6**,>,!~=6*>*,*>6>6=*)~~)>)))~')>)~>>!g!),>*&.==$$=$$=..&&&.&&-*",
")~~)&...,**&+++8.&&..-..&*&*&.===*6*=&&$...**,*>>)~'~~!g99!~,>*....=.%=.==,)*,),*,)***6*>,*6*=62u$=6==~)=6**,6$6=&6=>'>>~>>)>'~~>>>,*)~~,,>>;...$=.&&..&8;&;&-*,",
"ghh~&..&,,>*-+-=.&&;.88.&*&*&&6&*>>>*;,&*>,,)>>)))~'')!g''gg!>,&.&.==.*6*==>,6,=*>)=$6$=*2$6**62v4$=$$')6,,>,6=*6*=6,,,*,*,,*>'~)>>*6*,>,,0;&=.-&.=&-.$=.-;*&;,'",
"!!~,.===,,>>--&.&*6&&+>;*&;*;;,>)~')*>,)>>*>]~^>,*,))>~)=6!!'),=..&=&>*==$w4$uss$>~$3=$$==6==66===*,**!)*>>,*=6=*,666),,),>>>)~~)~>,66*,**>;=$.&-%$$&..&&-;&-&;)",
",=$6..*,,>>>*-,;;;>,,,>,>;,*;>)')'')>)>)>,,)~'~>>;,*,,,*=*>*66=$444$$22a$2u=6aa2$69>6)>>),*6=6**,,**6>))*,,,*66*>),>,)))>))),,,**,>66==6*,>>==-&&..-.*..=...&.=,",
"6*&>.**)),>),>,,>>>)>*),,>>)*,>>>)'~,>,,>>,>,>,*=$==$*$426$$$=42$$4=.24=*,,~)6*,6,')~~~)*6,,,,*,,***6*~),6**===*>6,*,~'~)0~>,,,*6,,,&=6**,>)&$=.#$%-&&$=..&.&.;;",
"-***.->)>>,>)*;*;)ee)>>,,>>~,,>,>)')=4$==6>*==66====*,6==&&....-&;*;-&6*>>>)>*,>>,),**~!~>***66,***==6~!*==4=$$*>=66=*~>6;&&.&===6,*.&=,>*)),=.....-&&--...&;&*&",
">);&--y]>p));&&.--+e>);;*>;)*,,&**))=...=&>),*>>***>~~,,**.&.&&&--**&&&**,*>*6>6*=x=6*,~~**6&6*6=66$==>'6=...=&&===$24=====44==&*****>*~~6,~>>..-&&..&&&&&-;-**6",
">,*.=.>,***&..88...$&*&&**=*&=*;-8,>;--&&-,,&{;,*6>'''^~),**==&--&*;*=&***,,*zz=6*6*,,,~>>6**,>***====*'=4$=$&..2=.%2=&*.=.=&=.**;,,6,***,,~))-&&&&.&---*;--;>),",
"&&....&=$.$.$.$8.....&&*+.&-..&&&@*,*&--**,,&**666,~))>))>,*,**k>;>>>;,,;,6=$6B*,*=6***>*6=**&.&&&$4=$,).$$......#a}#..&$$==.&&**;>*pA6>,),'0)&;&-&.&*--&.&&---&",
"$$.%..&.&....-..#.&&8+*&8&-&.==6*>;**;;&**,,,*,,;,>~~'>>))>,>,>;*;--*;&=$=====DD*6===*6*=====...====$$6>&...$$$$..$...&=%..*;*--*;**dC;*>**k0>;-.$}$--.4%%$&....",
"##.....-&&..&8...@.8.&*6*&;&.*>>>>>)>>>,,,)),>>,>>~!'!)))>,,,*&&&&**=$&&&&===xxD6==&666*==$=$$==&$=.$$*>*=..$..%-.&>*.&$%@8&.&&&-&&....&..=%===.a$%$..$%#}%.....",
"f##.#.---&..&+...8+8-;>,*;*&*,)])))),)>,)>>>>,,*>>)!')~)>>,,,,;&..**&&*=&===$$=6***,*,,*===&&=&&&.&*&=&,>&&...}.&$*;;.$%%#..$$.=#####%.==$%$==*>...$&.f#c@&..$.%",
"..$.&.-=&,,6&&;888;>d8>,*>p{>))~)~)))j>))~)~>>>,,)~!)>)>6,>,**=..-**;&**&6,***,**,*,6,,*6==&.-&-......$-*=.#}#/}%$4=%#}[a}%#.=$#ff#@....&&&.=$4*&&*&..#.#@...=.#",
".-&-&.-**,~)6&*;-;>,>)')*,))>~'9''))*~~~)''!)~>,,,>j>,>0,****&**;;;;,,*;,>,,>>>>,,****,&===...$%%%%%2%2$$4}[[:_}[%##%[:}c##.-&$.f[..@.;&-;-.222===;&-;-..+.&..-$",
".&&*=&.*&,~,**,,>,>,)~)*>)0~0q!'!'>~p!!)))~')>,>>>~),>>>,6*;***-;*;,;*;;>,>,,,,***6==$=$$4%%:$a::}}}}}a..}}}}_}%}}%%%}:%[%}#&$$.$2...8;6,>-$=====;,>~)**&&.&,;-.",
"&=&*;&*;>,)>6,k>,>>)~))>)>0F>,~>)))~'q~)))~,),>)>>,),>>))),,*,*;;*&,*,;>,****66=*=$$222%a2%%[..#}%}}aa..#[[}_E[:[[[_[:/:_%...%.$=4>&--*,d^6.*&&==),~~)*=$=*&*6=&",
"=&kk;*ek)>*-&&&**>>,>>,*>)k>>>~'~))~!9))~~)~)>)0),,)>)>~>,*,&*;;**>,,>;>>,>*C66**&==$$%}$%}::}.#}%::_5%.#[[}<<%__1_:}sua3=;&.-&&=&0)&==*>)=6**.&$==>~F),>6*6*6=&",
"=&--==;>,;.$$..&=*>,,,>),>k;;,)))~~~9~>,)~~))>>~>*,,)>~),>,),**&**,**,>)~))),,>,>=$%[:}:_:[[_:[a%[[[}[a%.}}[G%c:|::##a$..;-;--&$$&),&==))~>66=.&$$*>),)~~*66,**=",
"$....$.-&&#%}.8-=&6&&*>,&;{;;=>)>>t)''>>~)')>>>~,*,)>>)>)~,~,,*8C8),>]'~9!''~jt>><(__::_H(:_____%}[[}[%.%a%_G[}</:%##2.&4.&>&=-&*;>&&..;>>,,=$&42*;-*>>>>6==6=.$"};
