/* XPM */
static char * bg_tile_small_silver_xpm[] = {
"160 90 49 1",
" 	c None",
".	c #767A7E",
"+	c #74787E",
"@	c #777B7F",
"#	c #787C80",
"$	c #75797D",
"%	c #74787C",
"&	c #71767B",
"*	c #73777B",
"=	c #717579",
"-	c #72767A",
";	c #74777C",
">	c #73767B",
",	c #7B7F83",
"'	c #7C8084",
")	c #7A7E82",
"!	c #797D81",
"~	c #73787D",
"{	c #74797E",
"]	c #7A7D80",
"^	c #7B7E81",
"/	c #797C81",
"(	c #72777C",
"_	c #757A7F",
":	c #70757A",
"<	c #75787D",
"[	c #6F7479",
"}	c #6F7377",
"|	c #6E7278",
"1	c #72757A",
"2	c #707478",
"3	c #6E7378",
"4	c #707378",
"5	c #6E7276",
"6	c #717479",
"7	c #6D7277",
"8	c #777A7F",
"9	c #70747A",
"0	c #76797E",
"a	c #7D8083",
"b	c #787B7E",
"c	c #777A7D",
"d	c #797C7F",
"e	c #7C7F82",
"f	c #757A7D",
"g	c #74797C",
"h	c #71757B",
"i	c #7E8286",
"j	c #7D8185",
".+@.@@@..@@@#@@.$.@...@..$.$.$%%%%&*=*%*---*--=--%*-**-*----%*$%;$%$**&&&---;>-..,''))))'!@!))!)))!))##@@##,,!!))!@@@@..@@$~%%$..$%..@.{@@.@]^#^!@@.@.$$.@]....$",
"...........@@..+$..$$....%~%%%%****%==-==-----==--*----*----*%%*%%%%%*~&%%*%%%%.@@@@!!#)!!!)!)#!)/#!!@..@@#!@@@@!#@@@@..@.$%~%$.@~%$..!@@!@@@^!^!@@..$~..$$*$$.$",
"@@@.@...@.....$$%..%%(~.%(*%%%*&-*=-====---==-=---*-*-%%%*-*%%****$%%*~%%%%$$..@###!!!@@@.@#....//@@@.@__!!)##@!!#!!!!!!!#!%%.@@@.%~{.@@@@..@@@#@@.@..@@@..$$$~.",
"%..@@@..@%.$..%(($$$$$%$%%(%*(**----=--:&-:-*-*--*%%*%$%$%*%%%%%%%%%%*%%<$.%...@@@@@@@@.@.@@.@.@!!#@###..!'!!!!))#!!!)!!))!.~@#@@.@.$$.#@@@@##!)#@@.@@@..@..%*%*",
"&%.....%.~%~~%~$%$.%%%(%%%**%&****---:*-%%-*-----*%*%$%$%$%%%%~~%((%&%%%%$.....@###@@@@.@@#!@@!)))!!)!!.@#)!#!!))#@##!)#!,!@##@@@!)@.~@@@@@@@!!!#@@!!#@@....$***",
"--**%@$%$..$~.+~%%&*%%$%%%%**&***%-*=:-*---*-=--****%%%%*-%%%%$%%%%%%%((%%...@@##@@@@@@@##!@@!!##!##@@#....@!#!)!@!!!!))!##!)@@.@)!.#!.@@!^!)^)!@@@@@._.@$%$$%**",
"---:%$%%.@...+~~%%**%**&%%%-*-%--&-*-:-----=====---*%%%*%*%*%%%%$.....$%$...@@#!@$.@@...@@@@@##@!!!!#!!@@.~~#!!!!#@!#!)@!##!).@@@#!@#)@...#@@@.$$..+.._@.$.$.%%*",
"%&-*$%%&%%%.$%%$$%%**---&&-=--***----[:-=-=}[==--=-%%%%**%%%%$%$%%%$..$$%.@....@.~$..$~@.@@@#!!@!#@!##.%%.*&@!!!!#!!@#!@@#!#!.@..@@.@@@@@.@@..$$..+..@@@.$$.@.$$",
"%%%%$&--***$%(%%%%*%%===%-=|==*---**1:-*-==}===--**%%%*-%**$%%*%*%%%%~~%(%.@..@@@.@@@%%#@@##!##@@...%-:[*.$(.@@.#@@@.@@..@#@@@@@.@.@@!#@@.##@...@@.@@@#@$$$$~..%",
".%$%%*-===*-%%*-**&**===*--2=2=-=-***=-*--=2}33-----**--%%%**%%*%%%$$%%%%%$$%$.@@@@!@%$@@#@@##..$%%%-=-[*$$$@@#@@@@@@@#@@@@@@......@@#@@.@#)#@._.@.@....%%$%%%%%",
".$%%*--=44==-*--->*--3=-*-===33[==**-3=*-=2}53[-=-*%%%*-%%$%%%%**%%%%%%%$(%%$%..@.@#...@@#@@@@@.%$.%==-=%.~.#@#@#!!!@@@@@@.@@@@.$~~.@@@@.@.@..{{+..@#.$$%$%%$%%%",
"$%*%%%%=646==-*---*-63:----===[[=-*--2=---=}3==-***%$%%*$%%%%%%%*%%%%%%%%%%%$%$..$%~(...@#!@!!@@%%%--=-2&.~@####!')#...%@@@@.$$$%~%..@@@@@.@.@...@.@@...%.$%.%%$",
"*&&*%**-=||}32-=--*>-7=--&---*---%%*-=3----2}==-**%%%%%%%%$%%%*%%%$%$%%$..%$$$@.@..%%@#@@!@@!##@$.%*-*%-%@$@@@@@##!...$%..@$%$$.$..$..@@@.@@.....~$$%*.*%%$$$$.%",
"%&%&-=&%--=[[=--&&%%;5[**%*--*;**%&--=4=-*-=2=--&*%(%*%%$%%$%%$$%%......@.$...@..$.%..@@@@@@@_@.~%%-*%.%...@#@####@@@@$%$..&*%%.$$$~...@#!#@@..$$%%$*1%****%**%%",
"%*(%*%%%*%$*-==-&%$%-5[**%%&**%*%*%%-=[=%%--=--%*%$$$%%%.$$....$$..$$...@.$..$...$......@@@.._@@~%%&*...@@.@###@###@@.%%.$$::*&-*%%$..@@#@@@@$$~~~~%%-*---****%$",
"..$~.$.%%%%%%:::-&&(*3:*%%%%*%*%%%*%%-=-%%%*--%$%%.%%*%%..$$.%%$%..%$......{$${@$*%$..@@@@@@.@@@@@..$@@@@.@@@@@@@.@...%%..%::---*%&%$~$@#@.....~%%~....*-&%$%%%$",
"...~~$.%~(%%%*%-;&(&*=:$$.$$%%*%%%*-*-3=*%*-===--&%%$%*$$$...%%%..$$%$...#@....@@~%@@@@#@#@@..@@@@...@@@..$...........$$..$-*.$-;%%%.$%@!@@@..~$.$..@#@.&(~$..%$",
"@@@@@@...$%%...$%%$%%=1.$$%$%.%%**---=2-*%%-*=----%..$($$.....$.#@..$.@@@##@@@@#.%%@@@..@@@@.$.....$$.{.@$.....$...@..@@...%.@@$$...@@..#@!#@..@@..!!!#@$%.@#@..",
")!!!#@.@.$%..%$%%%$$%=[&*%%$$$$%%***--=-%*-*-=--*%%$..%%..@....@@@......@@@@@.$...$%$.$.@@.{$$...$..$....@.....$..@.@..@.#...@@.$...$.@$.@#@@.@@@@@))!!!#!!!)#@!",
"#@@@@.%$$%%%$$$%%%$$%[[-%*%%%%%%$%%%%-2-.%%%%-***%%%$.$%$.@..$$$.$%~%.....$..%%.%$&&$$%$...~$~~.......@..8..@..$....@....@..@@@.@@@@@@#@@#!#!@####,,)))@!)!!!@@#",
".@....%%$%%..$$.%%$$%-:...%%%%$....$$%2=%%$%**-*-&*-%%%%%%$.$$%~$$$~$...${$.$%~.$%%*%.$~@.%$.$%....$..$...@...${{.....@@@@.@!!!!)!#@@)!!@#)!@..@#!,)#@#@.@.@@@@@",
"....$$%$.$.@$%%..$$.@*1...%%%%%%%%$$$*[2-=**-****&**%%*%%%$%~..%%$%%%.....$$.%..$%%%%..~..$$..$.@..%$....$.@@@.@@@@.#@@###.@!!!!!!@..@##..$@$$$~.@#!#@@.@..@@@@.",
"!@@.#@.$@.%@$%$%.$$$$&9%$%$*%%%%%*%.%%=2-=--%*-*%*%%$**$%$.$.$$$%$%%..$..~{{$@..$%%%%..$$%{..@..@@@........@@#@@!@@@@.@@..$@@......$$.@...$$$$$$$$.@##@.@..@@!@@",
"...$..%%$$%%%%{$$%%%%*:-$.%*%$%..%%%%$%--*=&****%%*%%&--%%%%...%%$.%.....$...$.@.$%....@$.@..@..@@@@@..@.$....#.@.......@...@.$$~%$%$..$.....$.@@#@##!###@@#@@@@",
".$%*%%%%%%%%%%%$$$%%%-=*.$%%$%%$.%%.$%%-*****-*%%*-%%-[=-%*%$.$%$..$........@@.@#@...@@@..@._.${@@$..$...$.%....%%......@@@@@.$$$.$$$.@.$.@@..$.#!!@@#!@#@@.@.$$",
"$.$%%$%%*%%%%.$..$$%%%=-..$%$%$%.%.@$*--*%***-&*%*-%%=[=*%%$.@@@@@@@@@@.......{$$.$$@@@....@.{~{@.$$.$00$$%~....$$.....@@@@@@@.$$$$%%%$%%-%$.$...@@#!@@.@..%%%%$",
"$%*$$$.$%%$.$..!a@@..@-*..$$%.@.@...%-%%-%%*%&--%%%%$*--%%%%%.@@@@.......%.%.$$%*--*..@.%$$.+++......$...$.$...@.$.$@..@...$$%$%%*&&--=[===-%%$....@@#@.@@%*$%*%",
"$%*@b.b.$]@.$$.!a#@@@@-*.%%%%..$.$..%%%$%$%%$%&-*%%$.$%%%%&%.@@{.@@.$.@@.$%$.%%-233-....%%%$$+{@...~.....$.$....$%%%$%%.$%%%*%%***&&&*=[--[[=%%....@@.$.$.c%%.%.",
"b%-b^@b@.@.....@@.$%$$=*$%%%$...$%...*%%*%%%%*&&*-%%..$%$$%%.@..$#@@.....$~.$.%*==-%.@..%%%%$$...$...<~%$.%$%%%%*&-*$%%*%%$%;->%%$%**%-*@.==-*%@...@.%$@.badbaee",
"b.:%.*%%*%$...$$%%$$.%**$%%%$..$%*%%%***%***%%%$$%%..@..$%%%.@$..@@$.$.@@.@....%%@@...$%%%%%$$%%%%%%%%%%%%%$%%*&*--*%*%*%%%*--&%%%%$%%%$.$%$...@###@@]!]b]abc]]]",
".%-*&--*$.%%%%$%%$$$.$-*%.$$...$%.%$%&&-*&&%%%%$.%%%...$$%%*.@@@@@#$..@@@.....%%.$.~.$$**%%(%%%%%~%(%$(%%%%*$%%%%*--%%%%%%%%%%%$@@.@@$@#!.@@@.#!@@#..!#@$%%-*.$%",
"%%*%$$-=-%$$$..%$$$...-=$@.#.@@$%....$&%.%........%$..@%%$**%@...@.$..$$.@..~.$.$$$$.$%*%%%%($%$~(~~(%%%%%%&%%%%%*-*.#@...%$....@@@.$%.@....@.@$.%$%$..$%%%*%$%%",
"$....$%--$$...$....@@.%-.....@..@.@@!#..@@@##@..$$$$$%$&&.%&%~..$.........{~$$$.%*%.$$&;%;*(~...$$+~%(%%$~%($%%.$$**....@.%*%$%%$$$%--%%$$......$$$$...$$%$%$.%.",
".$.$%%%-%%.$$%%$$$....$&.#@@@.@@!@@#!@.$.@@@...$$%%%.%$$$%%&(($......{{{$~{{%~(%%%$.@.%%$$$........@.$..$$.$..$~$0%%~$$..$%%.;%%$.%&-->-(%$$...$$.$%$..$$$%%$ff.",
"%$..$$$%$..$$.....@#@@%*.@@.....@@!!@...@@@@...$$%%$;0.~%*%&&(.~.{_..$$$....{$$....@@..@@@@@@@@....@...$+@.$.....0$%$.$$$$%%.$$...%-**%**%%$%$$(~%~~~%%%%%..@.g$",
"$.@@.$.$@..@@@....@@@@.%..@@@@@@.@@....@#..$%$$$$%$$<0%$~$$(&%%$.@!@$$@###@....@@@.#@@.......{..@@...+$...$.....$~%$$%~.$$%%%$%%%%%---%%((%%%%%%$%$$$%..@@@@@...",
".......$@.@.@@...@@.@@$%$...@@@#$..~$..@#80.....$.........@#@...!@#@.@@#@!#..@..@@@.@@.$..@@....@8....$.$.~..$%%%%%*%%~%%%**%%%%%%-:-=***%%%%$....$$@@....@.@@c.",
"$$$%$%%$..@........$...%~...@@!@.@$%%.@##@@@@@.@@@@@@#.@@@#@@@$~.@@@_.#@!....@.##@@@@.{$$....+@.@.+.$%%%$%$.$%*;****%*%%*%%%%%%$%%*=-*-*%%%%%%%...$$..$..@..@@..",
"$%$%.%%$.....$.$......@$$..@!@,!#@#@#@!!!!#@.@@@##@@@@......@@#$..$.@.@@@@@.@@.@@@@@..{..%%...~...~~<0%%$%;;%**-*-***1%**-*-%%%%%*-:*%*%.%%%$$...$$$%.$$..%$$$%$",
"%%$$$$%..@@.@@@#####!#!@@#!!!))!!#@@#!)!/@@.$.@@#!@@..~.$~$.!!].@.%.$~{..+....{@@{.{..$$$%&*..$%$~%%%(&*$%((%-&:--**$---*--=*-%%%%%1%%%&%$$$$.$$%%%%%%$%%%%%%%%%",
"$$..@@.@@###)@!))!!!!!!@@!!!!)!#!!###!)#!#!@.@@@@!@...%.%%$@@.@..%%%&($$....%%$@...$...$.%&%$$%%%%%%*&*$%(&&&h:&:-%&;:=***--*%%%%%-*%%%%%.$%$$$$%$%%%$%~%%%%%%%$",
"$.@@!!!#!!##!@.@!#!!!!@@@!!!)i!)!!!)!),))#@@@#@@@#~.{{$%<>..$...@*%&&*$@@.$.$.@....$%.$%%%(%.%(%%%%*&**%*%&:%%-%***--h-***-%*%%*%%%*%%%**(%%$%$%%$.%$%%~%$$$$..@",
"$.@@@@#!@#!))!@@!#))))#@@!!!''#)))))!,a!)@~..$..@.&(.@@$%*..$$..@..%&:*%%.$.$.@...((%$~((%$$...$$%%%%%%$%((~%%&&-**-=:**--*&*%(&*%%*%*%-%%$%.$%%$$%%%%%%%%%$0..$",
"%@@#!)!)))!!))!!#!!!!!!#@!!!j#!))))@@!@.@~{%$$.@@.*%.@@**-%..@..@@$%*%*&&$..%$$.@.$$..~~%%.@@@...$%%%%%*%%(~%%***---:-%%*--**%%&%$%%*%-*%%%*%$$.$$%$$%%*&***%%%%",
"%'')))))i'))))))#!!!!!#@#!#)j!!',)#@@!..#..~.@$.$%%...@%%%%%.@.#!$~$$%%%%.bc...@@.@@@@.$..@#!..$.....$%%.~~~%.%(%%6*--%%-*-*%%%&%$%*%%*%*-%-%%$000(%%;&-==---16%",
".,''))))'!@!))!)))!))##@@##,,!!))!@@@@..@@$~%%$..$%..@.{@@.@]^#^!@@.@.$$.@]....$.+@.@@@..@@@#@@.$.@...@..$.$.$%%%%&*=*%*---*--=--%*-**-*----%*$%;$%$**&&&---;>-.",
"@@@@!!#)!!!)!)#!)/#!!@..@@#!@@@@!#@@@@..@.$%~%$.@~%$..!@@!@@@^!^!@@..$~..$$*$$.$...........@@..+$..$$....%~%%%%****%==-==-----==--*----*----*%%*%%%%%*~&%%*%%%%.",
"###!!!@@@.@#....//@@@.@__!!)##@!!#!!!!!!!#!%%.@@@.%~{.@@@@..@@@#@@.@..@@@..$$$~.@@@.@...@.....$$%..%%(~.%(*%%%*&-*=-====---==-=---*-*-%%%*-*%%****$%%*~%%%%$$..@",
"@@@@@@@.@.@@.@.@!!#@###..!'!!!!))#!!!)!!))!.~@#@@.@.$$.#@@@@##!)#@@.@@@..@..%*%*%..@@@..@%.$..%(($$$$$%$%%(%*(**----=--:&-:-*-*--*%%*%$%$%*%%%%%%%%%%*%%<$.%...@",
"###@@@@.@@#!@@!)))!!)!!.@#)!#!!))#@##!)#!,!@##@@@!)@.~@@@@@@@!!!#@@!!#@@....$***&%.....%.~%~~%~$%$.%%%(%%%**%&****---:*-%%-*-----*%*%$%$%$%%%%~~%((%&%%%%$.....@",
"#@@@@@@@##!@@!!##!##@@#....@!#!)!@!!!!))!##!)@@.@)!.#!.@@!^!)^)!@@@@@._.@$%$$%**--**%@$%$..$~.+~%%&*%%$%%%%**&***%-*=:-*---*-=--****%%%%*-%%%%$%%%%%%%((%%...@@#",
"@$.@@...@@@@@##@!!!!#!!@@.~~#!!!!#@!#!)@!##!).@@@#!@#)@...#@@@.$$..+.._@.$.$.%%*---:%$%%.@...+~~%%**%**&%%%-*-%--&-*-:-----=====---*%%%*%*%*%%%%$.....$%$...@@#!",
".~$..$~@.@@@#!!@!#@!##.%%.*&@!!!!#!!@#!@@#!#!.@..@@.@@@@@.@@..$$..+..@@@.$$.@.$$%&-*$%%&%%%.$%%$$%%**---&&-=--***----[:-=-=}[==--=-%%%%**%%%%$%$%%%$..$$%.@....@",
"@.@@@%%#@@##!##@@...%-:[*.$(.@@.#@@@.@@..@#@@@@@.@.@@!#@@.##@...@@.@@@#@$$$$~..%%%%%$&--***$%(%%%%*%%===%-=|==*---**1:-*-==}===--**%%%*-%**$%%*%*%%%%~~%(%.@..@@",
"@@@!@%$@@#@@##..$%%%-=-[*$$$@@#@@@@@@@#@@@@@@......@@#@@.@#)#@._.@.@....%%$%%%%%.%$%%*-===*-%%*-**&**===*--2=2=-=-***=-*--=2}33-----**--%%%**%%*%%%$$%%%%%$$%$.@",
"@.@#...@@#@@@@@.%$.%==-=%.~.#@#@#!!!@@@@@@.@@@@.$~~.@@@@.@.@..{{+..@#.$$%$%%$%%%.$%%*--=44==-*--->*--3=-*-===33[==**-3=*-=2}53[-=-*%%%*-%%$%%%%**%%%%%%%$(%%$%..",
".$%~(...@#!@!!@@%%%--=-2&.~@####!')#...%@@@@.$$$%~%..@@@@@.@.@...@.@@...%.$%.%%$$%*%%%%=646==-*---*-63:----===[[=-*--2=---=}3==-***%$%%*$%%%%%%%*%%%%%%%%%%%$%$.",
"@..%%@#@@!@@!##@$.%*-*%-%@$@@@@@##!...$%..@$%$$.$..$..@@@.@@.....~$$%*.*%%$$$$.%*&&*%**-=||}32-=--*>-7=--&---*---%%*-=3----2}==-**%%%%%%%%$%%%*%%%$%$%%$..%$$$@.",
".$.%..@@@@@@@_@.~%%-*%.%...@#@####@@@@$%$..&*%%.$$$~...@#!#@@..$$%%$*1%****%**%%%&%&-=&%--=[[=--&&%%;5[**%*--*;**%&--=4=-*-=2=--&*%(%*%%$%%$%%$$%%......@.$...@.",
".$......@@@.._@@~%%&*...@@.@###@###@@.%%.$$::*&-*%%$..@@#@@@@$$~~~~%%-*---****%$%*(%*%%%*%$*-==-&%$%-5[**%%&**%*%*%%-=[=%%--=--%*%$$$%%%.$$....$$..$$...@.$..$..",
"$*%$..@@@@@@.@@@@@..$@@@@.@@@@@@@.@...%%..%::---*%&%$~$@#@.....~%%~....*-&%$%%%$..$~.$.%%%%%%:::-&&(*3:*%%%%*%*%%%*%%-=-%%%*--%$%%.%%*%%..$$.%%$%..%$......{$${@",
"@~%@@@@#@#@@..@@@@...@@@..$...........$$..$-*.$-;%%%.$%@!@@@..~$.$..@#@.&(~$..%$...~~$.%~(%%%*%-;&(&*=:$$.$$%%*%%%*-*-3=*%*-===--&%%$%*$$$...%%%..$$%$...#@....@",
".%%@@@..@@@@.$.....$$.{.@$.....$...@..@@...%.@@$$...@@..#@!#@..@@..!!!#@$%.@#@..@@@@@@...$%%...$%%$%%=1.$$%$%.%%**---=2-*%%-*=----%..$($$.....$.#@..$.@@@##@@@@#",
"..$%$.$.@@.{$$...$..$....@.....$..@.@..@.#...@@.$...$.@$.@#@@.@@@@@))!!!#!!!)#@!)!!!#@.@.$%..%$%%%$$%=[&*%%$$$$%%***--=-%*-*-=--*%%$..%%..@....@@@......@@@@@.$.",
"%$&&$$%$...~$~~.......@..8..@..$....@....@..@@@.@@@@@@#@@#!#!@####,,)))@!)!!!@@##@@@@.%$$%%%$$$%%%$$%[[-%*%%%%%%$%%%%-2-.%%%%-***%%%$.$%$.@..$$$.$%~%.....$..%%.",
"$%%*%.$~@.%$.$%....$..$...@...${{.....@@@@.@!!!!)!#@@)!!@#)!@..@#!,)#@#@.@.@@@@@.@....%%$%%..$$.%%$$%-:...%%%%$....$$%2=%%$%**-*-&*-%%%%%%$.$$%~$$$~$...${$.$%~.",
"$%%%%..~..$$..$.@..%$....$.@@@.@@@@.#@@###.@!!!!!!@..@##..$@$$$~.@#!#@@.@..@@@@.....$$%$.$.@$%%..$$.@*1...%%%%%%%%$$$*[2-=**-****&**%%*%%%$%~..%%$%%%.....$$.%..",
"$%%%%..$$%{..@..@@@........@@#@@!@@@@.@@..$@@......$$.@...$$$$$$$$.@##@.@..@@!@@!@@.#@.$@.%@$%$%.$$$$&9%$%$*%%%%%*%.%%=2-=--%*-*%*%%$**$%$.$.$$$%$%%..$..~{{$@..",
".$%....@$.@..@..@@@@@..@.$....#.@.......@...@.$$~%$%$..$.....$.@@#@##!###@@#@@@@...$..%%$$%%%%{$$%%%%*:-$.%*%$%..%%%%$%--*=&****%%*%%&--%%%%...%%$.%.....$...$.@",
"#@...@@@..@._.${@@$..$...$.%....%%......@@@@@.$$$.$$$.@.$.@@..$.#!!@@#!@#@@.@.$$.$%*%%%%%%%%%%%$$$%%%-=*.$%%$%%$.%%.$%%-*****-*%%*-%%-[=-%*%$.$%$..$........@@.@",
"$.$$@@@....@.{~{@.$$.$00$$%~....$$.....@@@@@@@.$$$$%%%$%%-%$.$...@@#!@@.@..%%%%$$.$%%$%%*%%%%.$..$$%%%=-..$%$%$%.%.@$*--*%***-&*%*-%%=[=*%%$.@@@@@@@@@@.......{$",
"*--*..@.%$$.+++......$...$.$...@.$.$@..@...$$%$%%*&&--=[===-%%$....@@#@.@@%*$%*%$%*$$$.$%%$.$..!a@@..@-*..$$%.@.@...%-%%-%%*%&--%%%%$*--%%%%%.@@@@.......%.%.$$%",
"233-....%%%$$+{@...~.....$.$....$%%%$%%.$%%%*%%***&&&*=[--[[=%%....@@.$.$.c%%.%.$%*@b.b.$]@.$$.!a#@@@@-*.%%%%..$.$..%%%$%$%%$%&-*%%$.$%%%%&%.@@{.@@.$.@@.$%$.%%-",
"==-%.@..%%%%$$...$...<~%$.%$%%%%*&-*$%%*%%$%;->%%$%**%-*@.==-*%@...@.%$@.badbaeeb%-b^@b@.@.....@@.$%$$=*$%%%$...$%...*%%*%%%%*&&*-%%..$%$$%%.@..$#@@.....$~.$.%*",
"%@@...$%%%%%$$%%%%%%%%%%%%%$%%*&*--*%*%*%%%*--&%%%%$%%%$.$%$...@###@@]!]b]abc]]]b.:%.*%%*%$...$$%%$$.%**$%%%$..$%*%%%***%***%%%$$%%..@..$%%%.@$..@@$.$.@@.@....%",
".$.~.$$**%%(%%%%%~%(%$(%%%%*$%%%%*--%%%%%%%%%%%$@@.@@$@#!.@@@.#!@@#..!#@$%%-*.$%.%-*&--*$.%%%%$%%$$$.$-*%.$$...$%.%$%&&-*&&%%%%$.%%%...$$%%*.@@@@@#$..@@@.....%%",
"$$$$.$%*%%%%($%$~(~~(%%%%%%&%%%%%*-*.#@...%$....@@@.$%.@....@.@$.%$%$..$%%%*%$%%%%*%$$-=-%$$$..%$$$...-=$@.#.@@$%....$&%.%........%$..@%%$**%@...@.$..$$.@..~.$.",
"%*%.$$&;%;*(~...$$+~%(%%$~%($%%.$$**....@.%*%$%%$$$%--%%$$......$$$$...$$%$%$.%.$....$%--$$...$....@@.%-.....@..@.@@!#..@@@##@..$$$$$%$&&.%&%~..$.........{~$$$.",
"%%$.@.%%$$$........@.$..$$.$..$~$0%%~$$..$%%.;%%$.%&-->-(%$$...$$.$%$..$$$%%$ff..$.$%%%-%%.$$%%$$$....$&.#@@@.@@!@@#!@.$.@@@...$$%%%.%$$$%%&(($......{{{$~{{%~(%",
"...@@..@@@@@@@@....@...$+@.$.....0$%$.$$$$%%.$$...%-**%**%%$%$$(~%~~~%%%%%..@.g$%$..$$$%$..$$.....@#@@%*.@@.....@@!!@...@@@@...$$%%$;0.~%*%&&(.~.{_..$$$....{$$.",
"@@.#@@.......{..@@...+$...$.....$~%$$%~.$$%%%$%%%%%---%%((%%%%%%$%$$$%..@@@@@...$.@@.$.$@..@@@....@@@@.%..@@@@@@.@@....@#..$%$$$$%$$<0%$~$$(&%%$.@!@$$@###@....@",
"@@@.@@.$..@@....@8....$.$.~..$%%%%%*%%~%%%**%%%%%%-:-=***%%%%$....$$@@....@.@@c........$@.@.@@...@@.@@$%$...@@@#$..~$..@#80.....$.........@#@...!@#@.@@#@!#..@..",
"#@@@@.{$$....+@.@.+.$%%%$%$.$%*;****%*%%*%%%%%%$%%*=-*-*%%%%%%%...$$..$..@..@@..$$$%$%%$..@........$...%~...@@!@.@$%%.@##@@@@@.@@@@@@#.@@@#@@@$~.@@@_.#@!....@.#",
"@@@@..{..%%...~...~~<0%%$%;;%**-*-***1%**-*-%%%%%*-:*%*%.%%%$$...$$$%.$$..%$$$%$$%$%.%%$.....$.$......@$$..@!@,!#@#@#@!!!!#@.@@@##@@@@......@@#$..$.@.@@@@@.@@.@",
"@{.{..$$$%&*..$%$~%%%(&*$%((%-&:--**$---*--=*-%%%%%1%%%&%$$$$.$$%%%%%%$%%%%%%%%%%%$$$$%..@@.@@@#####!#!@@#!!!))!!#@@#!)!/@@.$.@@#!@@..~.$~$.!!].@.%.$~{..+....{@",
"...$...$.%&%$$%%%%%%*&*$%(&&&h:&:-%&;:=***--*%%%%%-*%%%%%.$%$$$$%$%%%$%~%%%%%%%$$$..@@.@@###)@!))!!!!!!@@!!!!)!#!!###!)#!#!@.@@@@!@...%.%%$@@.@..%%%&($$....%%$@",
"...$%.$%%%(%.%(%%%%*&**%*%&:%%-%***--h-***-%*%%*%%%*%%%**(%%$%$%%$.%$%%~%$$$$..@$.@@!!!#!!##!@.@!#!!!!@@@!!!)i!)!!!)!),))#@@@#@@@#~.{{$%<>..$...@*%&&*$@@.$.$.@.",
"..((%$~((%$$...$$%%%%%%$%((~%%&&-**-=:**--*&*%(&*%%*%*%-%%$%.$%%$$%%%%%%%%%$0..$$.@@@@#!@#!))!@@!#))))#@@!!!''#)))))!,a!)@~..$..@.&(.@@$%*..$$..@..%&:*%%.$.$.@.",
"@.$$..~~%%.@@@...$%%%%%*%%(~%%***---:-%%*--**%%&%$%%*%-*%%%*%$$.$$%$$%%*&***%%%%%@@#!)!)))!!))!!#!!!!!!#@!!!j#!))))@@!@.@~{%$$.@@.*%.@@**-%..@..@@$%*%*&&$..%$$.",
"@.@@@@.$..@#!..$.....$%%.~~~%.%(%%6*--%%-*-*%%%&%$%*%%*%*-%-%%$000(%%;&-==---16%%'')))))i'))))))#!!!!!#@#!#)j!!',)#@@!..#..~.@$.$%%...@%%%%%.@.#!$~$$%%%%.bc...@"};
